<svg xmlns="http://www.w3.org/2000/svg" viewBox="0 0 25 25" height="25" width="25"><title>0.svg</title><rect fill="none" x="0" y="0" width="25" height="25"></rect><rect x="1" y="1" rx="4" ry="4" width="23" height="23" stroke="#808080" style="stroke-linejoin:round;stroke-miterlimit:4;" fill="#808080" stroke-width="2"></rect><rect x="1" y="1" width="23" height="23" rx="4" ry="4" fill="#dd9900"></rect><path fill="#ffffff" transform="translate(5 5)" d="M11.825 3.13125L11.6062 2.5H3.39375L1.875 6.875V12.5H3.75V11.25H11.25V12.5H13.125V6.875L11.825 3.13125ZM4.0625 9.375C3.54375 9.375 3.125 8.95625 3.125 8.4375C3.125 7.91875 3.54375 7.5 4.0625 7.5C4.58125 7.5 5 7.91875 5 8.4375C5 8.95625 4.58125 9.375 4.0625 9.375ZM10.9375 9.375C10.4188 9.375 10 8.95625 10 8.4375C10 7.91875 10.4188 7.5 10.9375 7.5C11.4562 7.5 11.875 7.91875 11.875 8.4375C11.875 8.95625 11.4562 9.375 10.9375 9.375ZM3.125 6.25L4.0625 3.4375H10.9375L11.875 6.25H3.125Z"></path></svg>