<svg xmlns="http://www.w3.org/2000/svg" viewBox="0 0 25 25" height="25" width="25"><title>1.svg</title><rect fill="none" x="0" y="0" width="25" height="25"></rect><rect x="1" y="1" rx="4" ry="4" width="23" height="23" stroke="#808080" style="stroke-linejoin:round;stroke-miterlimit:4;" fill="#808080" stroke-width="2"></rect><rect x="1" y="1" width="23" height="23" rx="4" ry="4" fill="#e50000"></rect><path fill="#ffffff" transform="translate(5 5)" d="M10,2h0V1.5a.5.5,0,0,0-1,0V2H5A1,1,0,0,0,4,3V13a1,1,0,0,0,1,1h5a1,1,0,0,0,1-1V3A1,1,0,0,0,10,2ZM6,13H5V12H6Zm0-2H5V10H6ZM6,9H5V8H6Zm2,4H7V12H8Zm0-2H7V10H8ZM8,9H7V8H8Zm2,4H9V12h1Zm0-2H9V10h1Zm0-2H9V8h1Zm0-2.5a.5.5,0,0,1-.5.5h-4A.5.5,0,0,1,5,6.5v-3A.5.5,0,0,1,5.5,3h4a.5.5,0,0,1,.5.5Z"></path></svg>
