<svg xmlns="http://www.w3.org/2000/svg" viewBox="0 0 25 25" height="25" width="25"><title>1.svg</title><rect fill="none" x="0" y="0" width="25" height="25"></rect><rect x="1" y="1" rx="4" ry="4" width="23" height="23" stroke="#808080" style="stroke-linejoin:round;stroke-miterlimit:4;" fill="#808080" stroke-width="2"></rect><rect x="1" y="1" width="23" height="23" rx="4" ry="4" fill="#e50000"></rect><path fill="#ffffff" transform="translate(5 5)" d="M12.5 11.25C13.1875 11.25 13.75 10.6875 13.75 10V3.75C13.75 3.0625 13.1875 2.5 12.5 2.5H2.5C1.8125 2.5 1.25 3.0625 1.25 3.75V10C1.25 10.6875 1.8125 11.25 2.5 11.25H0V12.5H15V11.25H12.5ZM2.5 3.75H12.5V10H2.5V3.75Z"></path></svg>