<svg xmlns="http://www.w3.org/2000/svg" viewBox="0 0 25 25" height="25" width="25"><title>14.svg</title><rect fill="none" x="0" y="0" width="25" height="25"></rect><rect x="1" y="1" rx="4" ry="4" width="23" height="23" stroke="#808080" style="stroke-linejoin:round;stroke-miterlimit:4;" fill="#808080" stroke-width="2"></rect><rect x="1" y="1" width="23" height="23" rx="4" ry="4" fill="#c51162"></rect><path fill="#fff" transform="translate(5 5)" d="M 14.371094 2.34375 C 12.269531 2.042969 9.945312 1.875 7.5 1.875 C 5.054688 1.875 2.730469 2.042969 0.628906 2.34375 C 0.222656 3.921875 0 5.667969 0 7.5 C 0 9.332031 0.222656 11.078125 0.628906 12.65625 C 2.730469 12.957031 5.054688 13.125 7.5 13.125 C 9.945312 13.125 12.269531 12.957031 14.371094 12.65625 C 14.777344 11.078125 15 9.332031 15 7.5 C 15 5.667969 14.777344 3.921875 14.371094 2.34375 Z M 5.625 10.3125 L 5.625 4.6875 L 10.3125 7.5 Z M 5.625 10.3125 "></path></svg>