<svg xmlns="http://www.w3.org/2000/svg" viewBox="0 0 25 25" height="25" width="25"><title>15.svg</title><rect fill="none" x="0" y="0" width="25" height="25"></rect><rect x="1" y="1" rx="4" ry="4" width="23" height="23" stroke="#808080" style="stroke-linejoin:round;stroke-miterlimit:4;" fill="#808080" stroke-width="2"></rect><rect x="1" y="1" width="23" height="23" rx="4" ry="4" fill="#007be0"></rect><path fill="#fff" transform="translate(5 5)" d="M 13.125 3.75 L 10.3125 3.75 L 10.3125 1.875 C 10.3125 1.359375 9.890625 0.9375 9.375 0.9375 L 5.625 0.9375 C 5.109375 0.9375 4.6875 1.359375 4.6875 1.875 L 4.6875 3.75 L 1.875 3.75 C 0.84375 3.75 0 4.59375 0 5.625 L 0 13.125 C 0 14.15625 0.84375 15 1.875 15 L 13.125 15 C 14.15625 15 15 14.15625 15 13.125 L 15 5.625 C 15 4.59375 14.15625 3.75 13.125 3.75 Z M 5.625 1.875 L 9.375 1.875 L 9.375 3.75 L 5.625 3.75 Z M 11.25 10.3125 L 8.4375 10.3125 L 8.4375 13.125 L 6.5625 13.125 L 6.5625 10.3125 L 3.75 10.3125 L 3.75 8.4375 L 6.5625 8.4375 L 6.5625 5.625 L 8.4375 5.625 L 8.4375 8.4375 L 11.25 8.4375 Z M 11.25 10.3125 "></path></svg>