<svg xmlns="http://www.w3.org/2000/svg" viewBox="0 0 25 25" height="25" width="25"><title>17.svg</title><rect fill="none" x="0" y="0" width="25" height="25"></rect><rect x="1" y="1" rx="4" ry="4" width="23" height="23" stroke="#808080" style="stroke-linejoin:round;stroke-miterlimit:4;" fill="#808080" stroke-width="2"></rect><rect x="1" y="1" width="23" height="23" rx="4" ry="4" fill="#00ccc6"></rect><path fill="#fff" transform="translate(5 5)" d="M 1.265625 6.5625 C 1.285156 6.105469 1.40625 5.59375 1.625 5.03125 C 1.84375 4.46875 2.113281 3.976562 2.4375 3.558594 C 3.09375 4.082031 3.558594 4.597656 3.828125 5.105469 C 4.097656 5.609375 4.269531 6.09375 4.34375 6.5625 Z M 10.65625 6.5625 C 10.730469 6.09375 10.902344 5.609375 11.171875 5.105469 C 11.441406 4.597656 11.90625 4.082031 12.5625 3.558594 C 12.886719 3.976562 13.15625 4.46875 13.375 5.03125 C 13.59375 5.59375 13.714844 6.105469 13.734375 6.5625 Z M 2.4375 10.425781 C 2.113281 10.007812 1.84375 9.519531 1.625 8.960938 C 1.40625 8.402344 1.285156 7.894531 1.265625 7.4375 L 4.34375 7.4375 C 4.269531 7.90625 4.097656 8.386719 3.828125 8.890625 C 3.558594 9.390625 3.09375 9.902344 2.4375 10.425781 Z M 12.5625 10.425781 C 11.90625 9.902344 11.441406 9.390625 11.171875 8.890625 C 10.902344 8.386719 10.730469 7.90625 10.65625 7.4375 L 13.734375 7.4375 C 13.714844 7.894531 13.59375 8.402344 13.375 8.960938 C 13.15625 9.519531 12.886719 10.007812 12.5625 10.425781 Z M 5.296875 6.5625 C 5.214844 5.96875 5.019531 5.378906 4.71875 4.789062 C 4.417969 4.203125 3.863281 3.566406 3.0625 2.886719 C 3.511719 2.480469 4.0625 2.109375 4.71875 1.78125 C 5.375 1.449219 6.144531 1.25 7.03125 1.179688 L 7.03125 6.5625 Z M 7.96875 6.5625 L 7.96875 1.179688 C 8.855469 1.25 9.628906 1.449219 10.289062 1.78125 C 10.949219 2.109375 11.503906 2.480469 11.953125 2.886719 C 11.152344 3.566406 10.597656 4.203125 10.289062 4.789062 C 9.980469 5.378906 9.785156 5.96875 9.703125 6.5625 Z M 7.03125 12.820312 C 6.09375 12.75 5.308594 12.546875 4.679688 12.214844 C 4.050781 11.878906 3.511719 11.507812 3.0625 11.097656 C 3.863281 10.417969 4.417969 9.785156 4.71875 9.203125 C 5.019531 8.617188 5.214844 8.03125 5.296875 7.4375 L 7.03125 7.4375 Z M 7.96875 12.820312 L 7.96875 7.4375 L 9.703125 7.4375 C 9.785156 8.03125 9.980469 8.617188 10.289062 9.203125 C 10.597656 9.785156 11.152344 10.417969 11.953125 11.097656 C 11.503906 11.507812 10.964844 11.878906 10.328125 12.214844 C 9.691406 12.546875 8.90625 12.75 7.96875 12.820312 Z M 7.96875 12.820312 "></path></svg>