<svg xmlns="http://www.w3.org/2000/svg" viewBox="0 0 25 25" height="25" width="25"><title>3.svg</title><rect fill="none" x="0" y="0" width="25" height="25"></rect><rect x="1" y="1" rx="4" ry="4" width="23" height="23" stroke="#808080" style="stroke-linejoin:round;stroke-miterlimit:4;" fill="#808080" stroke-width="2"></rect><rect x="1" y="1" width="23" height="23" rx="4" ry="4" fill="#6900e2"></rect><path fill="#ffffff" transform="translate(5 5)" d="M1.25 10.3125C1.25 12.2125 2.7875 13.75 4.6875 13.75C6.5875 13.75 8.125 12.2125 8.125 10.3125V6.25H1.25V10.3125ZM4.6875 11.5625C3.825 11.5625 3.125 11.1438 3.125 10.625H6.25C6.25 11.1438 5.55 11.5625 4.6875 11.5625ZM6.25 8.125C6.59375 8.125 6.875 8.40625 6.875 8.75C6.875 9.09375 6.59375 9.375 6.25 9.375C5.90625 9.375 5.625 9.09375 5.625 8.75C5.625 8.40625 5.90625 8.125 6.25 8.125ZM3.125 8.125C3.46875 8.125 3.75 8.40625 3.75 8.75C3.75 9.09375 3.46875 9.375 3.125 9.375C2.78125 9.375 2.5 9.09375 2.5 8.75C2.5 8.40625 2.78125 8.125 3.125 8.125Z"></path><path fill="#ffffff" transform="translate(5 5)" d="M6.875 1.875V5.625H8.75V7.1875C8.75 6.66875 9.45 6.25 10.3125 6.25C11.175 6.25 11.875 6.66875 11.875 7.1875H8.75V8.75V8.99375C9.21875 9.23125 9.75 9.375 10.3125 9.375C12.2125 9.375 13.75 7.8375 13.75 5.9375V1.875H6.875ZM8.75 5.05C8.40625 5.05 8.125 4.76875 8.125 4.425C8.125 4.08125 8.40625 3.8 8.75 3.8C9.09375 3.8 9.375 4.08125 9.375 4.425C9.375 4.775 9.09375 5.05 8.75 5.05ZM11.875 5.05C11.5312 5.05 11.25 4.76875 11.25 4.425C11.25 4.08125 11.5312 3.8 11.875 3.8C12.2188 3.8 12.5 4.08125 12.5 4.425C12.5 4.775 12.2188 5.05 11.875 5.05Z"></path></svg>