<svg xmlns="http://www.w3.org/2000/svg" viewBox="0 0 25 25" height="25" width="25"><title>3.svg</title><rect fill="none" x="0" y="0" width="25" height="25"></rect><rect x="1" y="1" rx="4" ry="4" width="23" height="23" stroke="#808080" style="stroke-linejoin:round;stroke-miterlimit:4;" fill="#808080" stroke-width="2"></rect><rect x="1" y="1" width="23" height="23" rx="4" ry="4" fill="#6900e2"></rect><path fill="#ffffff" transform="translate(5 5)" d="M2,1c0,0-1,0-1,1v5.1582C1,8.8885,1.354,11,4.5,11H5V8L2.5,9c0,0,0-2.5,2.5-2.5V5 c0-0.7078,0.0868-1.3209,0.5-1.7754C5.8815,2.805,6.5046,1.9674,8.1562,2.7539L9,3.3027V2c0,0,0-1-1-1C7.2922,1,6.0224,2,5,2 S2.7865,1,2,1z M3,3c0.5523,0,1,0.4477,1,1S3.5523,5,3,5S2,4.5523,2,4S2.4477,3,3,3z M7,4c0,0-1,0-1,1v5c0,2,1,4,4,4s4-2,4-4V5 c0-1-1-1-1-1c-0.7078,0-1.9776,1-3,1S7.7865,4,7,4z M8,6c0.5523,0,1,0.4477,1,1S8.5523,8,8,8S7,7.5523,7,7S7.4477,6,8,6z M12,6 c0.5523,0,1,0.4477,1,1s-0.4477,1-1,1s-1-0.4477-1-1S11.4477,6,12,6z M7.5,10H10h2.5c0,0,0,2.5-2.5,2.5S7.5,10,7.5,10z"></path><path fill="#ffffff" transform="translate(5 5)" d="M6.875 1.875V5.625H8.75V7.1875C8.75 6.66875 9.45 6.25 10.3125 6.25C11.175 6.25 11.875 6.66875 11.875 7.1875H8.75V8.75V8.99375C9.21875 9.23125 9.75 9.375 10.3125 9.375C12.2125 9.375 13.75 7.8375 13.75 5.9375V1.875H6.875ZM8.75 5.05C8.40625 5.05 8.125 4.76875 8.125 4.425C8.125 4.08125 8.40625 3.8 8.75 3.8C9.09375 3.8 9.375 4.08125 9.375 4.425C9.375 4.775 9.09375 5.05 8.75 5.05ZM11.875 5.05C11.5312 5.05 11.25 4.76875 11.25 4.425C11.25 4.08125 11.5312 3.8 11.875 3.8C12.2188 3.8 12.5 4.08125 12.5 4.425C12.5 4.775 12.2188 5.05 11.875 5.05Z"></path></svg>