<svg xmlns="http://www.w3.org/2000/svg" viewBox="0 0 25 25" height="25" width="25"><title>6.svg</title><rect fill="none" x="0" y="0" width="25" height="25"></rect><rect x="1" y="1" rx="4" ry="4" width="23" height="23" stroke="#808080" style="stroke-linejoin:round;stroke-miterlimit:4;" fill="#808080" stroke-width="2"></rect><rect x="1" y="1" width="23" height="23" rx="4" ry="4" fill="#00ccc6"></rect><path fill="#ffffff" transform="translate(5 5)" d="M11.8749 5.81245V3.12495C11.8749 2.7812 11.5936 2.49995 11.2499 2.49995H10.6249C10.2811 2.49995 9.99988 2.7812 9.99988 3.12495V4.12495L7.91863 2.24995C7.68113 2.03745 7.31863 2.03745 7.08113 2.24995L1.85613 6.9562C1.64363 7.1437 1.77488 7.49995 2.06238 7.49995H3.12488V11.875C3.12488 12.2187 3.40613 12.5 3.74988 12.5H5.62488C5.96863 12.5 6.24988 12.2187 6.24988 11.875V8.74995H8.74988V11.875C8.74988 12.2187 9.03113 12.5 9.37488 12.5H11.2499C11.5936 12.5 11.8749 12.2187 11.8749 11.875V7.49995H12.9374C13.2249 7.49995 13.3624 7.1437 13.1436 6.9562L11.8749 5.81245ZM6.24988 6.24995C6.24988 5.56245 6.81238 4.99995 7.49988 4.99995C8.18738 4.99995 8.74988 5.56245 8.74988 6.24995H6.24988Z"></path></svg>