<svg xmlns="http://www.w3.org/2000/svg" viewBox="0 0 25 25" height="25" width="25"><title>7.svg</title><rect fill="none" x="0" y="0" width="25" height="25"></rect><rect x="1" y="1" rx="4" ry="4" width="23" height="23" stroke="#808080" style="stroke-linejoin:round;stroke-miterlimit:4;" fill="#808080" stroke-width="2"></rect><rect x="1" y="1" width="23" height="23" rx="4" ry="4" fill="#007be0"></rect><path fill="#ffffff" transform="translate(5 5)" d="M11.875 3.75H9.375V1.25H5.625V3.75H3.125V13.125H4.375C4.375 13.4688 4.65625 13.75 5 13.75C5.34375 13.75 5.625 13.4688 5.625 13.125H9.375C9.375 13.4688 9.65625 13.75 10 13.75C10.3438 13.75 10.625 13.4688 10.625 13.125H11.875V3.75ZM5.9375 11.25H5V5.625H5.9375V11.25ZM7.96875 11.25H7.03125V5.625H7.96875V11.25ZM8.4375 3.75H6.5625V2.1875H8.4375V3.75ZM10 11.25H9.0625V5.625H10V11.25Z"></path></svg>