<svg xmlns="http://www.w3.org/2000/svg" viewBox="0 0 25 25" height="25" width="25"><title>8.svg</title><rect fill="none" x="0" y="0" width="25" height="25"></rect><rect x="1" y="1" rx="4" ry="4" width="23" height="23" stroke="#808080" style="stroke-linejoin:round;stroke-miterlimit:4;" fill="#808080" stroke-width="2"></rect><rect x="1" y="1" width="23" height="23" rx="4" ry="4" fill="#377387"></rect><path fill="#ffffff" transform="translate(5 5)" d="M12.5 1.875H2.5V8.125C2.5 9.50625 3.61875 10.625 5 10.625H8.75C10.1312 10.625 11.25 9.50625 11.25 8.125V6.25H12.5C13.1938 6.25 13.75 5.6875 13.75 5V3.125C13.75 2.43125 13.1938 1.875 12.5 1.875ZM12.5 5H11.25V3.125H12.5V5ZM2.5 11.875H12.5V13.125H2.5V11.875Z"></path></svg>