<svg xmlns="http://www.w3.org/2000/svg" viewBox="0 0 25 25" height="25" width="25"><title>9.svg</title><rect fill="none" x="0" y="0" width="25" height="25"></rect><rect x="1" y="1" rx="4" ry="4" width="23" height="23" stroke="#808080" style="stroke-linejoin:round;stroke-miterlimit:4;" fill="#808080" stroke-width="2"></rect><rect x="1" y="1" width="23" height="23" rx="4" ry="4" fill="#c51162"></rect><path fill="#ffffff" transform="translate(5 5)" d="M7.5 7.5C6.8125 7.5 6.25 6.9375 6.25 6.25C6.25 5.5625 6.8125 5 7.5 5C8.1875 5 8.75 5.5625 8.75 6.25C8.75 6.9375 8.1875 7.5 7.5 7.5ZM7.5 1.25C4.875 1.25 2.5 3.2625 2.5 6.375C2.5 8.45 4.16875 10.9062 7.5 13.75C10.8313 10.9062 12.5 8.45 12.5 6.375C12.5 3.2625 10.125 1.25 7.5 1.25Z"></path></svg>