<?xml version="1.0" encoding="UTF-8" standalone="no"?>
<!-- Generator: Adobe Illustrator 12.0.0, SVG Export Plug-In . SVG Version: 6.00 Build 51448)  -->
<svg
   xmlns:dc="http://purl.org/dc/elements/1.1/"
   xmlns:cc="http://web.resource.org/cc/"
   xmlns:rdf="http://www.w3.org/1999/02/22-rdf-syntax-ns#"
   xmlns:svg="http://www.w3.org/2000/svg"
   xmlns="http://www.w3.org/2000/svg"
   xmlns:sodipodi="http://sodipodi.sourceforge.net/DTD/sodipodi-0.dtd"
   xmlns:inkscape="http://www.inkscape.org/namespaces/inkscape"
   version="1.0"
   id="Layer_1"
   width="384"
   height="384"
   viewBox="0 0 384 384"
   overflow="visible"
   enable-background="new 0 0 384 384"
   xml:space="preserve"
   sodipodi:version="0.32"
   inkscape:version="0.45.1"
   sodipodi:docname="TCH blank.svg"
   inkscape:output_extension="org.inkscape.output.svg.inkscape"
   sodipodi:docbase="C:\Documents and Settings\hp\My Documents\My Pictures\Canada Shields"><metadata
   id="metadata16"><rdf:RDF><cc:Work
       rdf:about=""><dc:format>image/svg+xml</dc:format><dc:type
         rdf:resource="http://purl.org/dc/dcmitype/StillImage" /></cc:Work></rdf:RDF></metadata><defs
   id="defs14" /><sodipodi:namedview
   inkscape:window-height="744"
   inkscape:window-width="1280"
   inkscape:pageshadow="2"
   inkscape:pageopacity="0.0"
   guidetolerance="10.0"
   gridtolerance="10.0"
   objecttolerance="10.0"
   borderopacity="1.0"
   bordercolor="#666666"
   pagecolor="#ffffff"
   id="base"
   showguides="true"
   inkscape:guide-bbox="true"
   inkscape:zoom="0.98177083"
   inkscape:cx="214.40849"
   inkscape:cy="126.84189"
   inkscape:window-x="0"
   inkscape:window-y="22"
   inkscape:current-layer="Layer_1" />
<path
   style="fill:#217821;stroke-width:5;stroke-miterlimit:4"
   d="M 31.569744,6.8139938e-015 L 352.43025,6.8139938e-015 C 369.91989,6.8139938e-015 384,14.06464 384,31.535068 L 384,352.46493 C 384,369.93536 369.91989,384 352.43025,384 L 31.569744,384 C 14.080106,384 0,369.93536 0,352.46493 L 0,31.535068 C 0,14.06464 14.080106,6.8139938e-015 31.569744,6.8139938e-015 z "
   id="rect2168" />
<path
   style="fill:#ffffff;fill-opacity:1;fill-rule:evenodd;stroke:none;stroke-width:0.19036415px;stroke-linecap:butt;stroke-linejoin:miter;stroke-opacity:1"
   d="M 186.8056,335.29268 C 186.8056,335.29268 186.96671,324.16568 186.88991,323.99497 C 186.64966,323.4611 93.166749,333.98086 93.00906,333.14348 C 92.856427,332.33277 104.23927,295.95936 103.80216,295.6642 C 103.01122,295.13005 8.5761598,207.89049 8.4504898,207.53987 C 8.3856487,207.35885 34.46145,193.86186 34.659746,193.375 C 34.402146,193.33484 16.148701,120.84073 16.524186,120.50653 C 17.436377,119.69462 73.393227,135.2841 74.353647,134.95309 C 75.030869,134.71974 83.059865,99.98551 83.562224,100.17265 C 84.639227,100.57395 101.05979,118.16562 111.56222,128.40784 C 116.55191,133.27391 120.00443,135.22072 122.59142,135.18686 C 125.31939,135.15115 137.32935,136.60691 134.61293,120.00127 C 129.74018,90.213909 120.7721,34.944548 120.7721,34.944548 L 155.52266,56.907127 L 190.16751,5.1855975 L 228.46662,55.842341 L 263.89288,35.572952 C 263.89288,35.572952 259.25441,77.781457 255.74123,113.95508 C 254.55207,126.19935 256.47007,134.28911 264.56199,134.71277 C 268.26414,134.9066 274.48138,132.65833 278.1464,128.26056 C 291.72873,111.9627 301.16491,101.45173 301.16491,101.45173 L 310.16107,135.05181 L 367.92857,121.23065 L 349.18829,194.70864 L 375.76338,207.7068 L 280.6086,296.71022 L 291.59554,334.2776 L 198.60925,323.66784 L 198.47131,335.35621 L 186.8056,335.29268 z "
   id="path2235" /><path
   style="text-align:center;text-anchor:middle;fill:#ffffff;font-family:Roadgeek 2005 Series D"
   d="M 118.73337,343.17433 L 118.73337,354.21437 L 116.39328,354.21437 L 116.39328,343.17433 L 112.53342,343.17433 L 112.53342,340.8141 L 122.59323,340.8141 L 122.59323,343.17433 L 118.73337,343.17433 z M 132.98691,354.21437 L 130.82688,348.95436 L 127.24716,348.95436 L 127.24716,354.21437 L 124.84726,354.21437 L 124.84726,340.8141 L 131.00693,340.8141 C 131.50049,340.81412 131.92062,340.8542 132.26731,340.93434 C 132.61398,341.01451 132.96066,341.1612 133.30735,341.37441 C 133.94739,341.7211 134.45408,342.20775 134.82743,342.83437 C 135.20075,343.461 135.38741,344.15436 135.38742,344.91444 C 135.38741,345.67454 135.19739,346.36455 134.81736,346.98445 C 134.4373,347.60437 133.9006,348.1011 133.20725,348.47463 L 135.66696,354.21437 L 132.98691,354.21437 z M 132.98691,344.91444 C 132.9869,344.39443 132.81356,343.98113 132.46689,343.67452 C 132.1202,343.36793 131.64698,343.21463 131.04721,343.21462 L 127.24716,343.21462 L 127.24716,346.55446 L 131.04721,346.55446 C 131.64698,346.55447 132.1202,346.40442 132.46689,346.10432 C 132.81356,345.80424 132.9869,345.40762 132.98691,344.91444 L 132.98691,344.91444 z M 148.24265,354.21437 L 146.92307,351.05458 L 141.08261,351.05458 L 139.78257,354.21437 L 137.14279,354.21437 L 142.78305,340.8141 L 145.22263,340.8141 L 150.8226,354.21437 L 148.24265,354.21437 z M 144.00254,344.15456 L 142.12265,348.67421 L 145.88303,348.67421 L 144.00254,344.15456 z M 161.86814,354.21437 L 155.48813,344.9944 L 155.48813,354.21437 L 153.12851,354.21437 L 153.12851,340.8141 L 155.48813,340.8141 L 161.62827,349.65443 L 161.62827,340.8141 L 163.94821,340.8141 L 163.94821,354.21437 L 161.86814,354.21437 z M 177.44553,350.31422 C 177.44552,351.6745 176.81869,352.72125 175.56504,353.45448 C 175.09872,353.74786 174.57219,353.97115 173.98545,354.12434 C 173.39869,354.27754 172.792,354.35414 172.16538,354.35414 C 171.0053,354.35414 169.98194,354.14418 169.09531,353.72426 C 168.20867,353.30434 167.38531,352.65431 166.62522,351.77419 L 168.54538,350.27455 C 169.05197,350.8609 169.58532,351.28743 170.14542,351.55415 C 170.70551,351.82088 171.3654,351.95424 172.12509,351.95424 C 172.97836,351.95424 173.67833,351.79097 174.22501,351.46443 C 174.77167,351.1379 175.04501,350.72113 175.04502,350.21413 C 175.04501,349.68109 174.76506,349.2746 174.20517,348.99464 C 173.96509,348.90106 173.71505,348.80758 173.45505,348.71419 C 173.19503,348.62081 172.91183,348.54096 172.60544,348.47463 L 171.98532,348.29457 L 171.36521,348.15419 L 170.72556,347.95461 C 170.03219,347.79429 169.48878,347.61749 169.09531,347.42421 C 168.70183,347.23094 168.36512,346.97439 168.08518,346.65456 C 167.80523,346.34776 167.59527,346.00098 167.45529,345.61421 C 167.31532,345.22746 167.24533,344.82087 167.24533,344.39443 C 167.24533,343.83454 167.35865,343.32785 167.5853,342.87434 C 167.81194,342.42087 168.12525,342.03085 168.52524,341.7043 C 168.92522,341.37778 169.40852,341.12448 169.97513,340.94441 C 170.54174,340.76437 171.16521,340.67435 171.84555,340.67433 C 172.8453,340.67435 173.75523,340.84097 174.57535,341.17421 C 175.39545,341.50747 176.14547,342.02749 176.82541,342.73427 L 175.04502,344.33461 C 174.20516,343.45449 173.13868,343.01443 171.84555,343.01442 C 171.16521,343.01443 170.63512,343.13772 170.25528,343.38429 C 169.87544,343.63089 169.68552,343.9676 169.68552,344.39443 C 169.68552,344.5812 169.71878,344.74457 169.78531,344.88454 C 169.85184,345.02452 169.96516,345.15117 170.12528,345.26448 C 170.28539,345.37781 170.50206,345.48116 170.7753,345.57454 C 171.04853,345.66793 171.39185,345.76121 171.80527,345.85439 C 172.69841,346.04116 173.44507,346.22783 174.04526,346.41438 C 174.64543,346.60096 175.13208,346.78762 175.50522,346.97438 C 176.10539,347.28119 176.57882,347.73122 176.92551,348.32448 C 177.27218,348.91775 177.44552,349.58099 177.44553,350.31422 L 177.44553,350.31422 z M 178.80051,348.81459 L 178.80051,346.41408 L 183.50083,346.41408 L 183.50083,348.81459 L 178.80051,348.81459 z M 196.10764,351.49464 C 195.86755,351.96096 195.56085,352.37752 195.18753,352.74434 C 194.81419,353.11116 194.40414,353.42122 193.95737,353.67452 C 193.51058,353.92781 193.02729,354.12109 192.50748,354.25435 C 191.98766,354.38761 191.46102,354.45424 190.92758,354.45424 C 190.04745,354.45424 189.25735,354.28761 188.55728,353.95436 C 187.85721,353.62111 187.26059,353.15114 186.76743,352.54445 C 186.27426,351.93776 185.89768,351.20443 185.63767,350.34444 C 185.37766,349.48446 185.24765,348.53445 185.24765,347.4944 C 185.24765,346.44094 185.37766,345.48757 185.63767,344.63429 C 185.89768,343.78103 186.27426,343.05441 186.76743,342.45442 C 187.26059,341.85446 187.85721,341.3911 188.55728,341.06435 C 189.25735,340.73762 190.04745,340.57425 190.92758,340.57423 C 192.00749,340.57425 193.01081,340.8309 193.93753,341.34419 C 194.86424,341.85751 195.58761,342.58759 196.10764,343.53444 L 193.98728,344.67458 C 193.80091,344.39464 193.64435,344.18793 193.51761,344.05446 C 193.39085,343.92101 193.23409,343.79426 193.04734,343.67421 C 192.78081,343.461 192.45091,343.29102 192.05765,343.16426 C 191.66437,343.03752 191.28768,342.97415 190.92758,342.97414 C 190.31397,342.97415 189.80056,343.11087 189.38736,343.38429 C 188.97415,343.65774 188.6409,344.00778 188.38761,344.4344 C 188.13431,344.86105 187.95425,345.33773 187.84745,345.86446 C 187.74063,346.3912 187.68722,346.91457 187.68723,347.43459 C 187.68722,348.90106 187.97389,350.03764 188.54721,350.84432 C 189.12053,351.651 189.91399,352.05434 190.92758,352.05434 C 191.23397,352.05434 191.51056,352.02433 191.75736,351.96431 C 192.00413,351.90429 192.24421,351.81101 192.47757,351.68446 C 192.71092,351.55792 192.94753,351.38458 193.18741,351.16444 C 193.42727,350.94431 193.69389,350.67434 193.98728,350.35451 L 196.10764,351.49464 L 196.10764,351.49464 z M 209.06296,354.21437 L 207.74338,351.05458 L 201.90293,351.05458 L 200.60288,354.21437 L 197.96311,354.21437 L 203.60337,340.8141 L 206.04294,340.8141 L 211.64292,354.21437 L 209.06296,354.21437 z M 204.82285,344.15456 L 202.94297,348.67421 L 206.70334,348.67421 L 204.82285,344.15456 z M 222.68845,354.21437 L 216.30844,344.9944 L 216.30844,354.21437 L 213.94882,354.21437 L 213.94882,340.8141 L 216.30844,340.8141 L 222.44858,349.65443 L 222.44858,340.8141 L 224.76853,340.8141 L 224.76853,354.21437 L 222.68845,354.21437 z M 238.12546,354.21437 L 236.80588,351.05458 L 230.96543,351.05458 L 229.66538,354.21437 L 227.02561,354.21437 L 232.66587,340.8141 L 235.10544,340.8141 L 240.70542,354.21437 L 238.12546,354.21437 z M 233.88535,344.15456 L 232.00547,348.67421 L 235.76584,348.67421 L 233.88535,344.15456 z M 253.73093,347.4944 C 253.73092,348.84125 253.45758,350.01465 252.91092,351.0146 C 252.36424,352.01456 251.55766,352.81443 250.49118,353.4142 C 250.02446,353.68113 249.51777,353.88122 248.9711,354.01448 C 248.42442,354.14774 247.87785,354.21437 247.33139,354.21437 L 243.01132,354.21437 L 243.01132,340.8141 L 247.33139,340.8141 C 248.47803,340.81412 249.54472,341.09427 250.53147,341.65456 C 251.57109,342.25434 252.36424,343.04424 252.91092,344.02425 C 253.45758,345.00428 253.73092,346.16099 253.73093,347.4944 L 253.73093,347.4944 z M 251.33103,347.4944 C 251.33102,346.58783 251.16775,345.82784 250.84122,345.21443 C 250.51467,344.60104 250.01795,344.10777 249.35105,343.73463 C 248.73784,343.38797 248.06462,343.21463 247.33139,343.21462 L 245.45151,343.21462 L 245.45151,351.81447 L 247.33139,351.81447 C 248.03777,351.81447 248.68433,351.64113 249.27109,351.29445 C 250.64437,350.57424 251.33102,349.30756 251.33103,347.4944 L 251.33103,347.4944 z M 266.68015,354.21437 L 265.36057,351.05458 L 259.52011,351.05458 L 258.22007,354.21437 L 255.58029,354.21437 L 261.22055,340.8141 L 263.66013,340.8141 L 269.2601,354.21437 L 266.68015,354.21437 z M 262.44004,344.15456 L 260.56015,348.67421 L 264.32053,348.67421 L 262.44004,344.15456 z M 96.174772,368.17433 L 96.174772,379.21437 L 93.834684,379.21437 L 93.834684,368.17433 L 89.974821,368.17433 L 89.974821,365.8141 L 100.03464,365.8141 L 100.03464,368.17433 L 96.174772,368.17433 z M 110.42832,379.21437 L 108.26828,373.95436 L 104.68857,373.95436 L 104.68857,379.21437 L 102.28867,379.21437 L 102.28867,365.8141 L 108.44834,365.8141 C 108.9419,365.81412 109.36202,365.8542 109.70871,365.93434 C 110.05538,366.01451 110.40206,366.1612 110.74875,366.37441 C 111.3888,366.7211 111.89549,367.20775 112.26883,367.83437 C 112.64215,368.461 112.82882,369.15436 112.82883,369.91444 C 112.82882,370.67454 112.63879,371.36455 112.25876,371.98445 C 111.8787,372.60437 111.342,373.1011 110.64865,373.47463 L 113.10837,379.21437 L 110.42832,379.21437 z M 110.42832,369.91444 C 110.42831,369.39443 110.25497,368.98113 109.9083,368.67452 C 109.56161,368.36793 109.08838,368.21463 108.48862,368.21462 L 104.68857,368.21462 L 104.68857,371.55446 L 108.48862,371.55446 C 109.08838,371.55447 109.56161,371.40442 109.9083,371.10432 C 110.25497,370.80424 110.42831,370.40762 110.42832,369.91444 L 110.42832,369.91444 z M 125.68405,379.21437 L 124.36447,376.05458 L 118.52402,376.05458 L 117.22397,379.21437 L 114.5842,379.21437 L 120.22446,365.8141 L 122.66403,365.8141 L 128.26401,379.21437 L 125.68405,379.21437 z M 121.44394,369.15456 L 119.56406,373.67421 L 123.32444,373.67421 L 121.44394,369.15456 z M 139.30954,379.21437 L 132.92954,369.9944 L 132.92954,379.21437 L 130.56992,379.21437 L 130.56992,365.8141 L 132.92954,365.8141 L 139.06967,374.65443 L 139.06967,365.8141 L 141.38962,365.8141 L 141.38962,379.21437 L 139.30954,379.21437 z M 154.88694,375.31422 C 154.88692,376.6745 154.26009,377.72125 153.00644,378.45448 C 152.54012,378.74786 152.01359,378.97115 151.42685,379.12434 C 150.84009,379.27754 150.2334,379.35414 149.60678,379.35414 C 148.4467,379.35414 147.42335,379.14418 146.53672,378.72426 C 145.65008,378.30434 144.82671,377.65431 144.06662,376.77419 L 145.98679,375.27455 C 146.49338,375.8609 147.02672,376.28743 147.58683,376.55415 C 148.14692,376.82088 148.80681,376.95424 149.5665,376.95424 C 150.41976,376.95424 151.11974,376.79097 151.66642,376.46443 C 152.21308,376.1379 152.48641,375.72113 152.48642,375.21413 C 152.48641,374.68109 152.20647,374.2746 151.64658,373.99464 C 151.4065,373.90106 151.15646,373.80758 150.89646,373.71419 C 150.63644,373.62081 150.35324,373.54096 150.04685,373.47463 L 149.42673,373.29457 L 148.80661,373.15419 L 148.16696,372.95461 C 147.4736,372.79429 146.93018,372.61749 146.53672,372.42421 C 146.14324,372.23094 145.80653,371.97439 145.52658,371.65456 C 145.24663,371.34776 145.03667,371.00098 144.8967,370.61421 C 144.75673,370.22746 144.68674,369.82087 144.68674,369.39443 C 144.68674,368.83454 144.80006,368.32785 145.02671,367.87434 C 145.25335,367.42087 145.56666,367.03085 145.96665,366.7043 C 146.36663,366.37778 146.84992,366.12448 147.41654,365.94441 C 147.98314,365.76437 148.60662,365.67435 149.28696,365.67433 C 150.28671,365.67435 151.19664,365.84097 152.01676,366.17421 C 152.83686,366.50747 153.58688,367.02749 154.26682,367.73427 L 152.48642,369.33461 C 151.64657,368.45449 150.58008,368.01443 149.28696,368.01442 C 148.60662,368.01443 148.07653,368.13772 147.69669,368.38429 C 147.31684,368.63089 147.12692,368.9676 147.12693,369.39443 C 147.12692,369.5812 147.16019,369.74457 147.22672,369.88454 C 147.29324,370.02452 147.40656,370.15117 147.56668,370.26448 C 147.72679,370.37781 147.94347,370.48116 148.21671,370.57454 C 148.48994,370.66793 148.83326,370.76121 149.24668,370.85439 C 150.13982,371.04116 150.88648,371.22783 151.48667,371.41438 C 152.08684,371.60096 152.57349,371.78762 152.94663,371.97438 C 153.5468,372.28119 154.02023,372.73122 154.36692,373.32448 C 154.71358,373.91775 154.88692,374.58099 154.88694,375.31422 L 154.88694,375.31422 z M 156.24192,373.81459 L 156.24192,371.41408 L 156.24192,373.81459 z M 173.54904,376.49464 C 173.30896,376.96096 173.00226,377.37752 172.62894,377.74434 C 172.2556,378.11116 171.84554,378.42122 171.39878,378.67452 C 170.95199,378.92781 170.46869,379.12109 169.94889,379.25435 C 169.42906,379.38761 168.90243,379.45424 168.36899,379.45424 C 167.48886,379.45424 166.69876,379.28761 165.99869,378.95436 C 165.29861,378.62111 164.702,378.15114 164.20883,377.54445 C 163.71567,376.93776 163.33908,376.20443 163.07907,375.34444 C 162.81906,374.48446 162.68906,373.53445 162.68906,372.4944 C 162.68906,371.44094 162.81906,370.48757 163.07907,369.63429 C 163.33908,368.78103 163.71567,368.05441 164.20883,367.45442 C 164.702,366.85446 165.29861,366.3911 165.99869,366.06435 C 166.69876,365.73762 167.48886,365.57425 168.36899,365.57423 C 169.4489,365.57425 170.45221,365.8309 171.37894,366.34419 C 172.30565,366.85751 173.02901,367.58759 173.54904,368.53444 L 171.42868,369.67458 C 171.24231,369.39464 171.08576,369.18793 170.95902,369.05446 C 170.83226,368.92101 170.6755,368.79426 170.48874,368.67421 C 170.22221,368.461 169.89232,368.29102 169.49906,368.16426 C 169.10578,368.03752 168.72909,367.97415 168.36899,367.97414 C 167.75538,367.97415 167.24197,368.11087 166.82877,368.38429 C 166.41556,368.65774 166.0823,369.00778 165.82901,369.4344 C 165.57571,369.86105 165.39566,370.33773 165.28885,370.86446 C 165.18204,371.3912 165.12863,371.91457 165.12863,372.43459 C 165.12863,373.90106 165.41529,375.03764 165.98862,375.84432 C 166.56194,376.651 167.35539,377.05434 168.36899,377.05434 C 168.67538,377.05434 168.95197,377.02433 169.19876,376.96431 C 169.44554,376.90429 169.68561,376.81101 169.91898,376.68446 C 170.15233,376.55792 170.38894,376.38458 170.62882,376.16444 C 170.86868,375.94431 171.1353,375.67434 171.42868,375.35451 L 173.54904,376.49464 L 173.54904,376.49464 z M 186.50437,379.21437 L 185.18479,376.05458 L 179.34433,376.05458 L 178.04428,379.21437 L 175.40451,379.21437 L 181.04477,365.8141 L 183.48435,365.8141 L 189.08432,379.21437 L 186.50437,379.21437 z M 182.26425,369.15456 L 180.38437,373.67421 L 184.14475,373.67421 L 182.26425,369.15456 z M 200.12986,379.21437 L 193.74985,369.9944 L 193.74985,379.21437 L 191.39023,379.21437 L 191.39023,365.8141 L 193.74985,365.8141 L 199.88999,374.65443 L 199.88999,365.8141 L 202.20993,365.8141 L 202.20993,379.21437 L 200.12986,379.21437 z M 215.56687,379.21437 L 214.24729,376.05458 L 208.40683,376.05458 L 207.10678,379.21437 L 204.46701,379.21437 L 210.10727,365.8141 L 212.54685,365.8141 L 218.14682,379.21437 L 215.56687,379.21437 z M 211.32675,369.15456 L 209.44687,373.67421 L 213.20725,373.67421 L 211.32675,369.15456 z M 231.17234,372.4944 C 231.17232,373.84125 230.89899,375.01465 230.35233,376.0146 C 229.80565,377.01456 228.99907,377.81443 227.93259,378.4142 C 227.46587,378.68113 226.95917,378.88122 226.41251,379.01448 C 225.86583,379.14774 225.31926,379.21437 224.7728,379.21437 L 220.45273,379.21437 L 220.45273,365.8141 L 224.7728,365.8141 C 225.91944,365.81412 226.98613,366.09427 227.97287,366.65456 C 229.01249,367.25434 229.80565,368.04424 230.35233,369.02425 C 230.89899,370.00428 231.17232,371.16099 231.17234,372.4944 L 231.17234,372.4944 z M 228.77243,372.4944 C 228.77242,371.58783 228.60915,370.82784 228.28263,370.21443 C 227.95608,369.60104 227.45935,369.10777 226.79245,368.73463 C 226.17925,368.38797 225.50603,368.21463 224.7728,368.21462 L 222.89292,368.21462 L 222.89292,376.81447 L 224.7728,376.81447 C 225.47917,376.81447 226.12574,376.64113 226.7125,376.29445 C 228.08578,375.57424 228.77242,374.30756 228.77243,372.4944 L 228.77243,372.4944 z M 234.24179,379.21437 L 234.24179,365.8141 L 236.6417,365.8141 L 236.6417,379.21437 L 234.24179,379.21437 z M 240.14023,379.21437 L 240.14023,365.8141 L 249.91989,365.8141 L 249.91989,368.21462 L 242.58042,368.21462 L 242.58042,370.69447 L 246.58005,370.69447 L 246.58005,373.15419 L 242.58042,373.15419 L 242.58042,376.81447 L 250.16037,376.81447 L 250.16037,379.21437 L 240.14023,379.21437 z M 261.57517,379.21437 L 255.19516,369.9944 L 255.19516,379.21437 L 252.83554,379.21437 L 252.83554,365.8141 L 255.19516,365.8141 L 261.3353,374.65443 L 261.3353,365.8141 L 263.65525,365.8141 L 263.65525,379.21437 L 261.57517,379.21437 z M 275.87204,379.21437 L 269.49204,369.9944 L 269.49204,379.21437 L 267.13242,379.21437 L 267.13242,365.8141 L 269.49204,365.8141 L 275.63217,374.65443 L 275.63217,365.8141 L 277.95212,365.8141 L 277.95212,379.21437 L 275.87204,379.21437 z M 281.42929,379.21437 L 281.42929,365.8141 L 291.20896,365.8141 L 291.20896,368.21462 L 283.86948,368.21462 L 283.86948,370.69447 L 287.86911,370.69447 L 287.86911,373.15419 L 283.86948,373.15419 L 283.86948,376.81447 L 291.44944,376.81447 L 291.44944,379.21437 L 281.42929,379.21437 z "
   id="flowRoot3206"
   sodipodi:nodetypes="ccccccccccccccccscsssccccsccccsccccccccccccccccccccccccccccsssccsssscsccccsssssssssccssssssssssccccccccsssssssssssssccssssssssssssscccccccccccccccccccccccccccccccccccccccccsssccccsscccssccccccccccccccccccccccccccccccccccccscsssccccsccccsccccccccccccccccccccccccccccsssccsssscsccccsssssssssccssssssssssccccccsssssssssssssccssssssssssssscccccccccccccccccccccccccccccccccccccccccsssccccsscccsscccccccccccccccccccccccccccccccccccccccccccccccccccccccccccc" /></svg>