<?xml version="1.0" encoding="utf-8"?>
<!-- Generator: Adobe Illustrator 12.0.0, SVG Export Plug-In . SVG Version: 6.00 Build 51448)  -->
<!DOCTYPE svg PUBLIC "-//W3C//DTD SVG 1.1//EN" "http://www.w3.org/Graphics/SVG/1.1/DTD/svg11.dtd" [
	<!ENTITY ns_svg "http://www.w3.org/2000/svg">
	<!ENTITY ns_xlink "http://www.w3.org/1999/xlink">
]>
<svg  version="1.1" id="Layer_1" xmlns="&ns_svg;" xmlns:xlink="&ns_xlink;" width="30" height="30" viewBox="0 0 600 600"
	 overflow="visible" enable-background="new 0 0 600 600" xml:space="preserve">
<g>
	<path fill-rule="evenodd" clip-rule="evenodd" fill="#FFFFFF" d="M300,10.0024414
		c23.5644531,20.0751953,54.1171875,32.1914063,87.5,32.1914063S451.4355469,30.0751953,475,10l115,115
		c-21.1621094,30.0805664-33.5878906,66.753418-33.5878906,106.3271484c0,28.4628906,6.4267578,55.4238281,17.9101563,79.5117188
		C584.2441406,331.6640625,590,355.3945313,590,380c0,88.3671875-71.6328125,160-160,160h-25.1132813
		C362.5419922,540,324.7509766,559.4951172,300,590c-24.7514648-30.5048828-62.5419922-50-104.8867188-50h-25.1137695
		c-88.3666992,0-160-71.6328125-160-160c0-24.6054688,5.7563477-48.3359375,15.6787109-69.1611328
		c11.4824219-24.0878906,17.9101563-51.0488281,17.9101563-79.5117188C43.5883789,191.753418,31.1616211,155.0805664,10,125L125,10
		c23.5644531,20.0751953,54.1166992,32.1938477,87.5,32.1938477C245.8828125,42.1938477,276.4355469,30.0776367,300,10.0024414z"/>

		<path fill-rule="evenodd" clip-rule="evenodd" fill="none" stroke="#000000" stroke-linecap="round" stroke-linejoin="round" stroke-miterlimit="3.863693" d="
		M300,10.0024414c23.5644531,20.0751953,54.1171875,32.1914063,87.5,32.1914063S451.4355469,30.0751953,475,10l115,115
		c-21.1621094,30.0805664-33.5878906,66.753418-33.5878906,106.3271484c0,28.4628906,6.4267578,55.4238281,17.9101563,79.5117188
		C584.2441406,331.6640625,590,355.3945313,590,380c0,88.3671875-71.6328125,160-160,160h-25.1132813
		C362.5419922,540,324.7509766,559.4951172,300,590c-24.7514648-30.5048828-62.5419922-50-104.8867188-50h-25.1137695
		c-88.3666992,0-160-71.6328125-160-160c0-24.6054688,5.7563477-48.3359375,15.6787109-69.1611328
		c11.4824219-24.0878906,17.9101563-51.0488281,17.9101563-79.5117188C43.5883789,191.753418,31.1616211,155.0805664,10,125L125,10
		c23.5644531,20.0751953,54.1166992,32.1938477,87.5,32.1938477C245.8828125,42.1938477,276.4355469,30.0776367,300,10.0024414z"/>
</g>
</svg>
