<?xml version="1.0" encoding="UTF-8" standalone="no"?>
<!-- Created with Inkscape (http://www.inkscape.org/) -->
<svg
   xmlns:dc="http://purl.org/dc/elements/1.1/"
   xmlns:cc="http://web.resource.org/cc/"
   xmlns:rdf="http://www.w3.org/1999/02/22-rdf-syntax-ns#"
   xmlns:svg="http://www.w3.org/2000/svg"
   xmlns="http://www.w3.org/2000/svg"
   xmlns:sodipodi="http://sodipodi.sourceforge.net/DTD/sodipodi-0.dtd"
   xmlns:inkscape="http://www.inkscape.org/namespaces/inkscape"
   version="1.0"
   height="30"
   width="37.5"
   viewBox="0 0 750 599.99902"
   id="Layer_1"
   xml:space="preserve"
   sodipodi:version="0.32"
   inkscape:version="0.45"
   sodipodi:docname="Interstate Route 3-Digit Template.svg"
   sodipodi:docbase="C:\Documents and Settings\ltljltlj\Desktop\Signs\Interstate Shields"
   inkscape:output_extension="org.inkscape.output.svg.inkscape"
   sodipodi:modified="true"><metadata
   id="metadata36"><rdf:RDF><cc:Work
       rdf:about=""><dc:format>image/svg+xml</dc:format><dc:type
         rdf:resource="http://purl.org/dc/dcmitype/StillImage" /></cc:Work></rdf:RDF></metadata><sodipodi:namedview
   inkscape:window-height="968"
   inkscape:window-width="1280"
   inkscape:pageshadow="2"
   inkscape:pageopacity="0.0"
   guidetolerance="10.0"
   gridtolerance="10.0"
   objecttolerance="10.0"
   borderopacity="1.0"
   bordercolor="#666666"
   pagecolor="#ffffff"
   id="base"
   width="751px"
   height="601px"
   inkscape:zoom="1.2866667"
   inkscape:cx="374.99999"
   inkscape:cy="299.99999"
   inkscape:window-x="-4"
   inkscape:window-y="-4"
   inkscape:current-layer="Layer_1" /><defs
   id="defs62">




</defs>
<g
   transform="matrix(0.9986685,0,0,0.9986701,0.4993342,0.3989609)"
   id="g5"
   style="fill:#ffffff;fill-opacity:1;stroke:#000000;stroke-width:0.99999923;stroke-miterlimit:4;stroke-dasharray:none;stroke-opacity:1">
		<path
   id="path7"
   style="fill:#ffffff;fill-opacity:1;stroke:#000000;stroke-width:0.99999923;stroke-miterlimit:4;stroke-dasharray:none;stroke-opacity:1"
   d="M 38.915039,0 C 92.236328,15.525391 148.625,23.849609 206.95801,23.849609 C 265.29053,23.849609 321.6792,15.525391 375,0.0004883 C 428.32031,15.525391 484.70898,23.849609 543.04199,23.849609 C 601.375,23.849609 657.76367,15.525391 711.08398,0 C 736.06445,54.121094 750,114.3877 750,177.90918 C 750,395.71777 586.16016,575.25391 375,599.99902 C 163.83887,575.25391 0,395.71777 0,177.90918 C 0,114.3877 13.935059,54.121094 38.915039,0 z " />

			<path
   id="path9"
   style="fill:#ffffff;fill-opacity:1;stroke:#000000;stroke-width:0.99999923;stroke-linecap:round;stroke-linejoin:round;stroke-miterlimit:4;stroke-dasharray:none;stroke-opacity:1"
   d="M 38.915039,0 C 92.236328,15.525391 148.625,23.849609 206.95801,23.849609 C 265.29053,23.849609 321.6792,15.525391 375,0.0004883 C 428.32031,15.525391 484.70898,23.849609 543.04199,23.849609 C 601.375,23.849609 657.76367,15.525391 711.08398,0 C 736.06445,54.121094 750,114.3877 750,177.90918 C 750,395.71777 586.16016,575.25391 375,599.99902 C 163.83887,575.25391 0,395.71777 0,177.90918 C 0,114.3877 13.935059,54.121094 38.915039,0 z " />
	</g><g
   transform="matrix(1.0056032,0,0,1.0101352,-2.1013651,-3.7019056)"
   id="g11"
   style="fill:#003f87;fill-opacity:1">
		<path
   id="path13"
   style="fill:#003f87;fill-opacity:1"
   d="M 15,177.90918 C 15,165.12744 15.584961,152.48242 16.729004,139.99902 L 733.27051,139.99902 C 734.41504,152.48242 735,165.12744 735,177.90918 C 735,387.42285 577.85547,560.22852 375,584.89062 C 172.14453,560.22852 15,387.42285 15,177.90918 z " />
	</g><g
   transform="matrix(1.00604,0,0,1.0270828,-2.2645003,-3.152306)"
   id="g15"
   style="fill:#af1e2d;fill-opacity:1">
		<path
   id="path17"
   style="fill:#af1e2d;fill-opacity:1"
   d="M 47.37793,17.942871 C 98.270019,31.578125 151.76562,38.849121 206.95996,38.849121 C 265.2207,38.849121 321.58936,30.748047 375,15.611328 C 428.41113,30.748047 484.7793,38.849121 543.04004,38.849121 C 598.23438,38.849121 651.73047,31.578613 702.62109,17.942871 C 716.88281,51.567383 726.78516,87.489258 731.61719,124.99902 L 18.381836,124.99902 C 23.214844,87.489258 33.116211,51.567383 47.37793,17.942871 z " />
	</g>



<path
   style="font-size:93.28099823px;font-style:normal;font-variant:normal;font-weight:normal;font-stretch:normal;text-align:center;line-height:125%;writing-mode:lr-tb;text-anchor:middle;fill:#ffffff;fill-opacity:1;font-family:Roadgeek 2005 Series C"
   d="M 183.53777,112.74917 L 183.53777,50.332865 L 192.29396,50.332865 L 192.29396,112.74917 L 183.53777,112.74917 z M 234.32653,112.74917 L 215.04301,70.921291 L 215.04301,112.74917 L 206.09918,112.74917 L 206.09918,50.332865 L 215.04301,50.332865 L 232.18296,87.782647 L 232.18296,50.332865 L 241.12679,50.332865 L 241.12679,112.74917 L 234.32653,112.74917 z M 270.23545,58.625663 L 270.23545,112.74917 L 261.20065,112.74917 L 261.20065,58.625663 L 249.83465,58.625663 L 249.83465,50.332865 L 281.60143,50.332865 L 281.60143,58.625663 L 270.23545,58.625663 z M 290.15861,112.74917 L 290.15861,50.332865 L 319.50324,50.332865 L 319.50324,59.091902 L 299.10244,59.091902 L 299.10244,74.833148 L 312.05194,74.833148 L 312.05194,83.404552 L 299.10244,83.404552 L 299.10244,103.99298 L 321.9254,103.99298 L 321.9254,112.74917 L 290.15861,112.74917 z M 358.17548,112.74917 L 349.88269,83.404552 L 341.31411,83.404552 L 341.31411,112.74917 L 332.37029,112.74917 L 332.37029,50.332865 L 351.00279,50.332865 C 353.42493,50.332929 355.64525,50.736622 357.66376,51.54395 C 359.68219,52.3514 361.42111,53.469613 362.88051,54.898595 C 364.33983,56.327694 365.45757,58.082245 366.23373,60.162261 C 367.0098,62.242381 367.39787,64.52477 367.39791,67.009433 C 367.39787,70.735596 366.65255,73.90308 365.16195,76.511893 C 363.67128,79.120779 361.43532,80.983363 358.45409,82.099652 L 367.39791,112.74917 L 358.17548,112.74917 z M 358.64172,67.009433 C 358.64169,64.587313 357.89638,62.662185 356.40575,61.234041 C 354.91509,59.806001 352.95869,59.091956 350.53655,59.091902 L 341.31411,59.091902 L 341.31411,74.833148 L 350.53655,74.833148 C 353.14444,74.833186 355.14726,74.165575 356.54506,72.830311 C 357.9428,71.495128 358.64169,69.554838 358.64172,67.009433 L 358.64172,67.009433 z M 409.6238,95.70018 C 409.62376,98.247451 409.17363,100.62318 408.27341,102.82737 C 407.3731,105.03161 406.13124,106.94109 404.54776,108.55585 C 402.96423,110.17065 401.13196,111.45944 399.05097,112.42223 C 396.96993,113.38505 394.71834,113.86645 392.29619,113.86645 C 389.56318,113.86645 387.11022,113.33861 384.93731,112.28293 C 382.76435,111.22726 380.93256,109.79917 379.44194,107.99865 C 377.95131,106.19814 376.80228,104.11759 375.99489,101.75702 C 375.18751,99.396461 374.78381,96.943499 374.78381,94.398123 L 383.54001,94.398123 C 383.54,95.702092 383.71057,96.990408 384.05174,98.263072 C 384.39287,99.535763 384.9207,100.68478 385.63525,101.71012 C 386.34974,102.73547 387.25048,103.55849 388.33744,104.17919 C 389.42436,104.79991 390.74393,105.11027 392.29619,105.11026 C 393.47694,105.11027 394.61079,104.86198 395.69775,104.36541 C 396.78466,103.86885 397.71619,103.1856 398.49234,102.31566 C 399.26843,101.44573 399.88913,100.43649 400.35445,99.287941 C 400.81971,98.139419 401.05235,96.943499 401.05238,95.70018 C 401.05235,93.899683 400.67994,92.301015 399.93512,90.904173 C 399.19025,89.507375 397.8863,88.094446 396.02326,86.665381 C 395.71241,86.354581 395.58827,86.183532 395.65085,86.152234 C 395.71337,86.120988 395.52716,85.950412 395.09222,85.640509 C 394.65723,85.330657 393.74086,84.725116 392.3431,83.823883 C 390.94531,82.922707 388.66292,81.386109 385.49594,79.214088 C 382.95056,77.474257 381.04107,75.439675 379.76745,73.110339 C 378.49382,70.781083 377.85701,68.219614 377.85702,65.425928 C 377.85701,63.189546 378.2607,61.093369 379.06811,59.137388 C 379.87546,57.181514 381.00884,55.458235 382.46822,53.967538 C 383.92758,52.476961 385.62007,51.312313 387.54568,50.473592 C 389.47127,49.634992 391.55133,49.215662 393.78589,49.215598 C 396.0223,49.215662 398.08767,49.619356 399.98203,50.426683 C 401.87634,51.234133 403.52191,52.352347 404.91876,53.781328 C 406.31555,55.210426 407.43328,56.918545 408.27199,58.90569 C 409.11061,60.892943 409.56121,63.066354 409.6238,65.425928 L 401.05238,65.425928 C 400.92916,63.252092 400.18432,61.513173 398.81785,60.209168 C 397.45134,58.90527 395.77402,58.253294 393.78589,58.253241 C 391.73706,58.253294 389.99862,58.936542 388.57055,60.302986 C 387.14245,61.669533 386.42839,63.377178 386.42841,65.425928 C 386.42839,66.978206 386.83208,68.282158 387.63951,69.337785 C 388.44687,70.393498 389.9991,71.573308 392.29619,72.877219 C 398.32127,76.355095 402.71547,79.895 405.47882,83.496947 C 408.2421,87.098952 409.62376,91.166692 409.6238,95.70018 L 409.6238,95.70018 z M 435.62512,58.625663 L 435.62512,112.74917 L 426.59032,112.74917 L 426.59032,58.625663 L 415.22434,58.625663 L 415.22434,50.332865 L 446.99112,50.332865 L 446.99112,58.625663 L 435.62512,58.625663 z M 481.63209,112.74917 L 477.254,95.70018 L 463.83826,95.70018 L 459.74163,112.74917 L 450.70398,112.74917 L 466.26042,50.332865 L 475.01947,50.332865 L 490.57591,112.74917 L 481.63209,112.74917 z M 470.45373,68.965363 L 466.07565,86.943987 L 475.01947,86.943987 L 470.45373,68.965363 z M 514.772,58.625663 L 514.772,112.74917 L 505.73719,112.74917 L 505.73719,58.625663 L 494.37122,58.625663 L 494.37122,50.332865 L 526.138,50.332865 L 526.138,58.625663 L 514.772,58.625663 z M 534.69519,112.74917 L 534.69519,50.332865 L 564.03981,50.332865 L 564.03981,59.091902 L 543.63901,59.091902 L 543.63901,74.833148 L 556.58851,74.833148 L 556.58851,83.404552 L 543.63901,83.404552 L 543.63901,103.99298 L 566.46197,103.99298 L 566.46197,112.74917 L 534.69519,112.74917 z "
   id="text7023" />



</svg>